<?xml version="1.0" encoding="UTF-8" standalone="no"?>
<!DOCTYPE svg PUBLIC "-//W3C//DTD SVG 1.1//EN"
 "http://www.w3.org/Graphics/SVG/1.1/DTD/svg11.dtd">
<!-- Generated by graphviz version 2.47.0 (20210316.0004)
 -->
<!-- Title: dependencies Pages: 1 -->
<svg width="690pt" height="284pt"
 viewBox="0.00 0.00 690.00 284.00" xmlns="http://www.w3.org/2000/svg" xmlns:xlink="http://www.w3.org/1999/xlink">
<g id="graph0" class="graph" transform="scale(1 1) rotate(0) translate(4 280)">
<title>dependencies</title>
<polygon fill="white" stroke="transparent" points="-4,4 -4,-280 686,-280 686,4 -4,4"/>
<text text-anchor="start" x="320.01" y="-42.4" font-family="Times-12" font-weight="bold" font-size="14.00">Legend</text>
<polygon fill="#ffffb3" stroke="transparent" points="107,-10 107,-30 127,-30 127,-10 107,-10"/>
<text text-anchor="start" x="130.63" y="-15.4" font-family="Times-12" font-size="14.00"> &#160;Declarations</text>
<polygon fill="#8dd3c7" stroke="transparent" points="220,-10 220,-30 240,-30 240,-10 220,-10"/>
<text text-anchor="start" x="243.73" y="-15.4" font-family="Times-12" font-size="14.00"> &#160;Module</text>
<polygon fill="#80b1d3" stroke="transparent" points="306,-10 306,-30 326,-30 326,-10 306,-10"/>
<text text-anchor="start" x="329.78" y="-15.4" font-family="Times-12" font-size="14.00"> &#160;Bootstrap</text>
<polygon fill="#fdb462" stroke="transparent" points="403,-10 403,-30 423,-30 423,-10 403,-10"/>
<text text-anchor="start" x="426.67" y="-15.4" font-family="Times-12" font-size="14.00"> &#160;Providers</text>
<polygon fill="#fb8072" stroke="transparent" points="499,-10 499,-30 519,-30 519,-10 499,-10"/>
<text text-anchor="start" x="522.73" y="-15.4" font-family="Times-12" font-size="14.00"> &#160;Exports</text>
<g id="clust1" class="cluster">
<title>cluster_SharedModule</title>
<polygon fill="none" stroke="black" stroke-dasharray="1,5" points="8,-70 8,-268 674,-268 674,-70 8,-70"/>
</g>
<g id="clust8" class="cluster">
<title>cluster_SharedModule_exports</title>
<polygon fill="none" stroke="black" points="16,-208 16,-260 666,-260 666,-208 16,-208"/>
</g>
<g id="clust2" class="cluster">
<title>cluster_SharedModule_declarations</title>
<polygon fill="none" stroke="black" points="25,-78 25,-130 660,-130 660,-78 25,-78"/>
</g>
<!-- DatePickerDirective -->
<g id="node1" class="node">
<title>DatePickerDirective</title>
<polygon fill="#ffffb3" stroke="black" points="652.27,-122 521.73,-122 521.73,-86 652.27,-86 652.27,-122"/>
<text text-anchor="middle" x="587" y="-99.8" font-family="Times,serif" font-size="14.00">DatePickerDirective</text>
</g>
<!-- SharedModule -->
<g id="node5" class="node">
<title>SharedModule</title>
<polygon fill="#8dd3c7" stroke="black" points="321.42,-187 318.42,-191 297.42,-191 294.42,-187 222.58,-187 222.58,-151 321.42,-151 321.42,-187"/>
<text text-anchor="middle" x="272" y="-164.8" font-family="Times,serif" font-size="14.00">SharedModule</text>
</g>
<!-- DatePickerDirective&#45;&gt;SharedModule -->
<g id="edge1" class="edge">
<title>DatePickerDirective&#45;&gt;SharedModule</title>
<path fill="none" stroke="black" d="M609.46,-122.27C609.46,-140.56 609.46,-166 609.46,-166 609.46,-166 331.43,-166 331.43,-166"/>
<polygon fill="black" stroke="black" points="331.43,-162.5 321.43,-166 331.43,-169.5 331.43,-162.5"/>
</g>
<!-- DatepickerComponent -->
<g id="node2" class="node">
<title>DatepickerComponent</title>
<polygon fill="#ffffb3" stroke="black" points="503.24,-122 360.76,-122 360.76,-86 503.24,-86 503.24,-122"/>
<text text-anchor="middle" x="432" y="-99.8" font-family="Times,serif" font-size="14.00">DatepickerComponent</text>
</g>
<!-- DatepickerComponent&#45;&gt;SharedModule -->
<g id="edge2" class="edge">
<title>DatepickerComponent&#45;&gt;SharedModule</title>
<path fill="none" stroke="black" d="M455.79,-122.01C455.79,-138.05 455.79,-159 455.79,-159 455.79,-159 331.25,-159 331.25,-159"/>
<polygon fill="black" stroke="black" points="331.25,-155.5 321.25,-159 331.25,-162.5 331.25,-155.5"/>
</g>
<!-- EngToNepNumberPipe -->
<g id="node3" class="node">
<title>EngToNepNumberPipe</title>
<polygon fill="#ffffb3" stroke="black" points="343.19,-122 194.81,-122 194.81,-86 343.19,-86 343.19,-122"/>
<text text-anchor="middle" x="269" y="-99.8" font-family="Times,serif" font-size="14.00">EngToNepNumberPipe</text>
</g>
<!-- EngToNepNumberPipe&#45;&gt;SharedModule -->
<g id="edge3" class="edge">
<title>EngToNepNumberPipe&#45;&gt;SharedModule</title>
<path fill="none" stroke="black" d="M272,-122.11C272,-122.11 272,-140.99 272,-140.99"/>
<polygon fill="black" stroke="black" points="268.5,-140.99 272,-150.99 275.5,-140.99 268.5,-140.99"/>
</g>
<!-- LocalLangChangePipe -->
<g id="node4" class="node">
<title>LocalLangChangePipe</title>
<polygon fill="#ffffb3" stroke="black" points="177.29,-122 32.71,-122 32.71,-86 177.29,-86 177.29,-122"/>
<text text-anchor="middle" x="105" y="-99.8" font-family="Times,serif" font-size="14.00">LocalLangChangePipe</text>
</g>
<!-- LocalLangChangePipe&#45;&gt;SharedModule -->
<g id="edge4" class="edge">
<title>LocalLangChangePipe&#45;&gt;SharedModule</title>
<path fill="none" stroke="black" d="M125.55,-122.02C125.55,-139.37 125.55,-163 125.55,-163 125.55,-163 212.42,-163 212.42,-163"/>
<polygon fill="black" stroke="black" points="212.42,-166.5 222.42,-163 212.42,-159.5 212.42,-166.5"/>
</g>
<!-- DatePickerDirective  -->
<g id="node6" class="node">
<title>DatePickerDirective </title>
<polygon fill="#fb8072" stroke="black" points="657.77,-252 524.23,-252 524.23,-216 657.77,-216 657.77,-252"/>
<text text-anchor="middle" x="591" y="-229.8" font-family="Times,serif" font-size="14.00">DatePickerDirective </text>
</g>
<!-- SharedModule&#45;&gt;DatePickerDirective  -->
<g id="edge5" class="edge">
<title>SharedModule&#45;&gt;DatePickerDirective </title>
<path fill="none" stroke="black" stroke-dasharray="5,2" d="M321.34,-173C405.26,-173 566.79,-173 566.79,-173 566.79,-173 566.79,-205.7 566.79,-205.7"/>
<polygon fill="black" stroke="black" points="563.29,-205.7 566.79,-215.7 570.29,-205.7 563.29,-205.7"/>
</g>
<!-- DatepickerComponent  -->
<g id="node7" class="node">
<title>DatepickerComponent </title>
<polygon fill="#fb8072" stroke="black" points="506.24,-252 359.76,-252 359.76,-216 506.24,-216 506.24,-252"/>
<text text-anchor="middle" x="433" y="-229.8" font-family="Times,serif" font-size="14.00">DatepickerComponent </text>
</g>
<!-- SharedModule&#45;&gt;DatepickerComponent  -->
<g id="edge6" class="edge">
<title>SharedModule&#45;&gt;DatepickerComponent </title>
<path fill="none" stroke="black" stroke-dasharray="5,2" d="M321.56,-180C360.51,-180 408.21,-180 408.21,-180 408.21,-180 408.21,-205.72 408.21,-205.72"/>
<polygon fill="black" stroke="black" points="404.71,-205.72 408.21,-215.72 411.71,-205.72 404.71,-205.72"/>
</g>
<!-- EngToNepNumberPipe  -->
<g id="node8" class="node">
<title>EngToNepNumberPipe </title>
<polygon fill="#fb8072" stroke="black" points="341.69,-252 190.31,-252 190.31,-216 341.69,-216 341.69,-252"/>
<text text-anchor="middle" x="266" y="-229.8" font-family="Times,serif" font-size="14.00">EngToNepNumberPipe </text>
</g>
<!-- SharedModule&#45;&gt;EngToNepNumberPipe  -->
<g id="edge7" class="edge">
<title>SharedModule&#45;&gt;EngToNepNumberPipe </title>
<path fill="none" stroke="black" stroke-dasharray="5,2" d="M272,-187.11C272,-187.11 272,-205.99 272,-205.99"/>
<polygon fill="black" stroke="black" points="268.5,-205.99 272,-215.99 275.5,-205.99 268.5,-205.99"/>
</g>
<!-- LocalLangChangePipe  -->
<g id="node9" class="node">
<title>LocalLangChangePipe </title>
<polygon fill="#fb8072" stroke="black" points="171.79,-252 24.21,-252 24.21,-216 171.79,-216 171.79,-252"/>
<text text-anchor="middle" x="98" y="-229.8" font-family="Times,serif" font-size="14.00">LocalLangChangePipe </text>
</g>
<!-- SharedModule&#45;&gt;LocalLangChangePipe  -->
<g id="edge8" class="edge">
<title>SharedModule&#45;&gt;LocalLangChangePipe </title>
<path fill="none" stroke="black" stroke-dasharray="5,2" d="M222.6,-175C165.48,-175 79.2,-175 79.2,-175 79.2,-175 79.2,-205.98 79.2,-205.98"/>
<polygon fill="black" stroke="black" points="75.7,-205.98 79.2,-215.98 82.7,-205.98 75.7,-205.98"/>
</g>
</g>
</svg>
