<?xml version="1.0" encoding="UTF-8" standalone="no"?>
<!DOCTYPE svg PUBLIC "-//W3C//DTD SVG 1.1//EN"
 "http://www.w3.org/Graphics/SVG/1.1/DTD/svg11.dtd">
<!-- Generated by graphviz version 2.47.0 (20210316.0004)
 -->
<!-- Title: dependencies Pages: 1 -->
<svg width="504pt" height="284pt"
 viewBox="0.00 0.00 504.00 284.00" xmlns="http://www.w3.org/2000/svg" xmlns:xlink="http://www.w3.org/1999/xlink">
<g id="graph0" class="graph" transform="scale(1 1) rotate(0) translate(4 280)">
<title>dependencies</title>
<polygon fill="white" stroke="transparent" points="-4,4 -4,-280 500,-280 500,4 -4,4"/>
<text text-anchor="start" x="227.01" y="-42.4" font-family="Times-12" font-weight="bold" font-size="14.00">Legend</text>
<polygon fill="#ffffb3" stroke="transparent" points="14,-10 14,-30 34,-30 34,-10 14,-10"/>
<text text-anchor="start" x="37.63" y="-15.4" font-family="Times-12" font-size="14.00"> &#160;Declarations</text>
<polygon fill="#8dd3c7" stroke="transparent" points="127,-10 127,-30 147,-30 147,-10 127,-10"/>
<text text-anchor="start" x="150.73" y="-15.4" font-family="Times-12" font-size="14.00"> &#160;Module</text>
<polygon fill="#80b1d3" stroke="transparent" points="213,-10 213,-30 233,-30 233,-10 213,-10"/>
<text text-anchor="start" x="236.78" y="-15.4" font-family="Times-12" font-size="14.00"> &#160;Bootstrap</text>
<polygon fill="#fdb462" stroke="transparent" points="310,-10 310,-30 330,-30 330,-10 310,-10"/>
<text text-anchor="start" x="333.67" y="-15.4" font-family="Times-12" font-size="14.00"> &#160;Providers</text>
<polygon fill="#fb8072" stroke="transparent" points="406,-10 406,-30 426,-30 426,-10 406,-10"/>
<text text-anchor="start" x="429.73" y="-15.4" font-family="Times-12" font-size="14.00"> &#160;Exports</text>
<g id="clust1" class="cluster">
<title>cluster_SharedModule</title>
<polygon fill="none" stroke="black" stroke-dasharray="1,5" points="83,-70 83,-268 413,-268 413,-70 83,-70"/>
</g>
<g id="clust6" class="cluster">
<title>cluster_SharedModule_exports</title>
<polygon fill="none" stroke="black" points="91,-208 91,-260 405,-260 405,-208 91,-208"/>
</g>
<g id="clust2" class="cluster">
<title>cluster_SharedModule_declarations</title>
<polygon fill="none" stroke="black" points="95,-78 95,-130 402,-130 402,-78 95,-78"/>
</g>
<!-- DatePickerDirective -->
<g id="node1" class="node">
<title>DatePickerDirective</title>
<polygon fill="#ffffb3" stroke="black" points="394.27,-122 263.73,-122 263.73,-86 394.27,-86 394.27,-122"/>
<text text-anchor="middle" x="329" y="-99.8" font-family="Times,serif" font-size="14.00">DatePickerDirective</text>
</g>
<!-- SharedModule -->
<g id="node3" class="node">
<title>SharedModule</title>
<polygon fill="#8dd3c7" stroke="black" points="224.42,-187 221.42,-191 200.42,-191 197.42,-187 125.58,-187 125.58,-151 224.42,-151 224.42,-187"/>
<text text-anchor="middle" x="175" y="-164.8" font-family="Times,serif" font-size="14.00">SharedModule</text>
</g>
<!-- DatePickerDirective&#45;&gt;SharedModule -->
<g id="edge1" class="edge">
<title>DatePickerDirective&#45;&gt;SharedModule</title>
<path fill="none" stroke="black" d="M350.71,-122.02C350.71,-139.37 350.71,-163 350.71,-163 350.71,-163 234.41,-163 234.41,-163"/>
<polygon fill="black" stroke="black" points="234.41,-159.5 224.41,-163 234.41,-166.5 234.41,-159.5"/>
</g>
<!-- DatepickerComponent -->
<g id="node2" class="node">
<title>DatepickerComponent</title>
<polygon fill="#ffffb3" stroke="black" points="245.24,-122 102.76,-122 102.76,-86 245.24,-86 245.24,-122"/>
<text text-anchor="middle" x="174" y="-99.8" font-family="Times,serif" font-size="14.00">DatepickerComponent</text>
</g>
<!-- DatepickerComponent&#45;&gt;SharedModule -->
<g id="edge2" class="edge">
<title>DatepickerComponent&#45;&gt;SharedModule</title>
<path fill="none" stroke="black" d="M175,-122.11C175,-122.11 175,-140.99 175,-140.99"/>
<polygon fill="black" stroke="black" points="171.5,-140.99 175,-150.99 178.5,-140.99 171.5,-140.99"/>
</g>
<!-- DatePickerDirective  -->
<g id="node4" class="node">
<title>DatePickerDirective </title>
<polygon fill="#fb8072" stroke="black" points="396.77,-252 263.23,-252 263.23,-216 396.77,-216 396.77,-252"/>
<text text-anchor="middle" x="330" y="-229.8" font-family="Times,serif" font-size="14.00">DatePickerDirective </text>
</g>
<!-- SharedModule&#45;&gt;DatePickerDirective  -->
<g id="edge3" class="edge">
<title>SharedModule&#45;&gt;DatePickerDirective </title>
<path fill="none" stroke="black" stroke-dasharray="5,2" d="M224.26,-175C261.87,-175 307.29,-175 307.29,-175 307.29,-175 307.29,-205.98 307.29,-205.98"/>
<polygon fill="black" stroke="black" points="303.79,-205.98 307.29,-215.98 310.79,-205.98 303.79,-205.98"/>
</g>
<!-- DatepickerComponent  -->
<g id="node5" class="node">
<title>DatepickerComponent </title>
<polygon fill="#fb8072" stroke="black" points="245.24,-252 98.76,-252 98.76,-216 245.24,-216 245.24,-252"/>
<text text-anchor="middle" x="172" y="-229.8" font-family="Times,serif" font-size="14.00">DatepickerComponent </text>
</g>
<!-- SharedModule&#45;&gt;DatepickerComponent  -->
<g id="edge4" class="edge">
<title>SharedModule&#45;&gt;DatepickerComponent </title>
<path fill="none" stroke="black" stroke-dasharray="5,2" d="M175,-187.11C175,-187.11 175,-205.99 175,-205.99"/>
<polygon fill="black" stroke="black" points="171.5,-205.99 175,-215.99 178.5,-205.99 171.5,-205.99"/>
</g>
</g>
</svg>
