<?xml version="1.0" encoding="UTF-8" standalone="no"?>
<!DOCTYPE svg PUBLIC "-//W3C//DTD SVG 1.1//EN"
 "http://www.w3.org/Graphics/SVG/1.1/DTD/svg11.dtd">
<!-- Generated by graphviz version 2.47.0 (20210316.0004)
 -->
<!-- Title: dependencies Pages: 1 -->
<svg width="504pt" height="284pt"
 viewBox="0.00 0.00 504.00 284.00" xmlns="http://www.w3.org/2000/svg" xmlns:xlink="http://www.w3.org/1999/xlink">
<g id="graph0" class="graph" transform="scale(1 1) rotate(0) translate(4 280)">
<title>dependencies</title>
<polygon fill="white" stroke="transparent" points="-4,4 -4,-280 500,-280 500,4 -4,4"/>
<text text-anchor="start" x="227.01" y="-42.4" font-family="Times-12" font-weight="bold" font-size="14.00">Legend</text>
<polygon fill="#ffffb3" stroke="transparent" points="14,-10 14,-30 34,-30 34,-10 14,-10"/>
<text text-anchor="start" x="37.63" y="-15.4" font-family="Times-12" font-size="14.00"> &#160;Declarations</text>
<polygon fill="#8dd3c7" stroke="transparent" points="127,-10 127,-30 147,-30 147,-10 127,-10"/>
<text text-anchor="start" x="150.73" y="-15.4" font-family="Times-12" font-size="14.00"> &#160;Module</text>
<polygon fill="#80b1d3" stroke="transparent" points="213,-10 213,-30 233,-30 233,-10 213,-10"/>
<text text-anchor="start" x="236.78" y="-15.4" font-family="Times-12" font-size="14.00"> &#160;Bootstrap</text>
<polygon fill="#fdb462" stroke="transparent" points="310,-10 310,-30 330,-30 330,-10 310,-10"/>
<text text-anchor="start" x="333.67" y="-15.4" font-family="Times-12" font-size="14.00"> &#160;Providers</text>
<polygon fill="#fb8072" stroke="transparent" points="406,-10 406,-30 426,-30 426,-10 406,-10"/>
<text text-anchor="start" x="429.73" y="-15.4" font-family="Times-12" font-size="14.00"> &#160;Exports</text>
<g id="clust1" class="cluster">
<title>cluster_HomeModule</title>
<polygon fill="none" stroke="black" stroke-dasharray="1,5" points="34.5,-70 34.5,-268 461.5,-268 461.5,-70 34.5,-70"/>
</g>
<g id="clust4" class="cluster">
<title>cluster_HomeModule_imports</title>
<polygon fill="none" stroke="black" points="182.5,-78 182.5,-130 453.5,-130 453.5,-78 182.5,-78"/>
</g>
<g id="clust2" class="cluster">
<title>cluster_HomeModule_declarations</title>
<polygon fill="none" stroke="black" points="42.5,-78 42.5,-130 174.5,-130 174.5,-78 42.5,-78"/>
</g>
<g id="clust5" class="cluster">
<title>cluster_HomeModule_exports</title>
<polygon fill="none" stroke="black" points="171.5,-208 171.5,-260 307.5,-260 307.5,-208 171.5,-208"/>
</g>
<!-- HomeComponent -->
<g id="node1" class="node">
<title>HomeComponent</title>
<polygon fill="#ffffb3" stroke="black" points="166.05,-122 50.95,-122 50.95,-86 166.05,-86 166.05,-122"/>
<text text-anchor="middle" x="108.5" y="-99.8" font-family="Times,serif" font-size="14.00">HomeComponent</text>
</g>
<!-- HomeModule -->
<g id="node2" class="node">
<title>HomeModule</title>
<polygon fill="#8dd3c7" stroke="black" points="286.26,-187 283.26,-191 262.26,-191 259.26,-187 192.74,-187 192.74,-151 286.26,-151 286.26,-187"/>
<text text-anchor="middle" x="239.5" y="-164.8" font-family="Times,serif" font-size="14.00">HomeModule</text>
</g>
<!-- HomeComponent&#45;&gt;HomeModule -->
<g id="edge1" class="edge">
<title>HomeComponent&#45;&gt;HomeModule</title>
<path fill="none" stroke="black" d="M108.5,-122.11C108.5,-141.34 108.5,-169 108.5,-169 108.5,-169 182.58,-169 182.58,-169"/>
<polygon fill="black" stroke="black" points="182.58,-172.5 192.58,-169 182.58,-165.5 182.58,-172.5"/>
</g>
<!-- HomeComponent  -->
<g id="node5" class="node">
<title>HomeComponent </title>
<polygon fill="#fb8072" stroke="black" points="299.04,-252 179.96,-252 179.96,-216 299.04,-216 299.04,-252"/>
<text text-anchor="middle" x="239.5" y="-229.8" font-family="Times,serif" font-size="14.00">HomeComponent </text>
</g>
<!-- HomeModule&#45;&gt;HomeComponent  -->
<g id="edge4" class="edge">
<title>HomeModule&#45;&gt;HomeComponent </title>
<path fill="none" stroke="black" stroke-dasharray="5,2" d="M239.5,-187.11C239.5,-187.11 239.5,-205.99 239.5,-205.99"/>
<polygon fill="black" stroke="black" points="236,-205.99 239.5,-215.99 243,-205.99 236,-205.99"/>
</g>
<!-- HomeRoutingModule -->
<g id="node3" class="node">
<title>HomeRoutingModule</title>
<polygon fill="#8dd3c7" stroke="black" points="445.88,-122 442.88,-126 421.88,-126 418.88,-122 307.12,-122 307.12,-86 445.88,-86 445.88,-122"/>
<text text-anchor="middle" x="376.5" y="-99.8" font-family="Times,serif" font-size="14.00">HomeRoutingModule</text>
</g>
<!-- HomeRoutingModule&#45;&gt;HomeModule -->
<g id="edge2" class="edge">
<title>HomeRoutingModule&#45;&gt;HomeModule</title>
<path fill="none" stroke="black" d="M376.5,-122.11C376.5,-141.34 376.5,-169 376.5,-169 376.5,-169 296.26,-169 296.26,-169"/>
<polygon fill="black" stroke="black" points="296.26,-165.5 286.26,-169 296.26,-172.5 296.26,-165.5"/>
</g>
<!-- SharedModule -->
<g id="node4" class="node">
<title>SharedModule</title>
<polygon fill="#8dd3c7" stroke="black" points="288.92,-122 285.92,-126 264.92,-126 261.92,-122 190.08,-122 190.08,-86 288.92,-86 288.92,-122"/>
<text text-anchor="middle" x="239.5" y="-99.8" font-family="Times,serif" font-size="14.00">SharedModule</text>
</g>
<!-- SharedModule&#45;&gt;HomeModule -->
<g id="edge3" class="edge">
<title>SharedModule&#45;&gt;HomeModule</title>
<path fill="none" stroke="black" d="M239.5,-122.11C239.5,-122.11 239.5,-140.99 239.5,-140.99"/>
<polygon fill="black" stroke="black" points="236,-140.99 239.5,-150.99 243,-140.99 236,-140.99"/>
</g>
</g>
</svg>
