<?xml version="1.0" encoding="UTF-8" standalone="no"?>
<!DOCTYPE svg PUBLIC "-//W3C//DTD SVG 1.1//EN"
 "http://www.w3.org/Graphics/SVG/1.1/DTD/svg11.dtd">
<!-- Generated by graphviz version 2.47.0 (20210316.0004)
 -->
<!-- Title: dependencies Pages: 1 -->
<svg width="3230pt" height="290pt"
 viewBox="0.00 0.00 3230.00 290.00" xmlns="http://www.w3.org/2000/svg" xmlns:xlink="http://www.w3.org/1999/xlink">
<g id="graph0" class="graph" transform="scale(1 1) rotate(0) translate(4 286)">
<title>dependencies</title>
<polygon fill="white" stroke="transparent" points="-4,4 -4,-286 3226,-286 3226,4 -4,4"/>
<text text-anchor="start" x="1590.01" y="-42.4" font-family="Times-12" font-weight="bold" font-size="14.00">Legend</text>
<polygon fill="#ffffb3" stroke="transparent" points="1377,-10 1377,-30 1397,-30 1397,-10 1377,-10"/>
<text text-anchor="start" x="1400.63" y="-15.4" font-family="Times-12" font-size="14.00"> &#160;Declarations</text>
<polygon fill="#8dd3c7" stroke="transparent" points="1490,-10 1490,-30 1510,-30 1510,-10 1490,-10"/>
<text text-anchor="start" x="1513.73" y="-15.4" font-family="Times-12" font-size="14.00"> &#160;Module</text>
<polygon fill="#80b1d3" stroke="transparent" points="1576,-10 1576,-30 1596,-30 1596,-10 1576,-10"/>
<text text-anchor="start" x="1599.78" y="-15.4" font-family="Times-12" font-size="14.00"> &#160;Bootstrap</text>
<polygon fill="#fdb462" stroke="transparent" points="1673,-10 1673,-30 1693,-30 1693,-10 1673,-10"/>
<text text-anchor="start" x="1696.67" y="-15.4" font-family="Times-12" font-size="14.00"> &#160;Providers</text>
<polygon fill="#fb8072" stroke="transparent" points="1769,-10 1769,-30 1789,-30 1789,-10 1769,-10"/>
<text text-anchor="start" x="1792.73" y="-15.4" font-family="Times-12" font-size="14.00"> &#160;Exports</text>
<g id="clust1" class="cluster">
<title>cluster_AppModule</title>
<polygon fill="none" stroke="black" stroke-dasharray="1,5" points="1325,-70 1325,-274 1732,-274 1732,-70 1325,-70"/>
</g>
<g id="clust2" class="cluster">
<title>cluster_AppModule_declarations</title>
<polygon fill="none" stroke="black" points="1602,-78 1602,-130 1724,-130 1724,-78 1602,-78"/>
</g>
<g id="clust4" class="cluster">
<title>cluster_AppModule_imports</title>
<polygon fill="none" stroke="black" points="1333,-78 1333,-130 1594,-130 1594,-78 1333,-78"/>
</g>
<g id="clust6" class="cluster">
<title>cluster_AppModule_bootstrap</title>
<polygon fill="none" stroke="black" points="1460,-214 1460,-266 1584,-266 1584,-214 1460,-214"/>
</g>
<g id="clust14" class="cluster">
<title>cluster_CoreModule</title>
<polygon fill="none" stroke="black" stroke-dasharray="1,5" points="1740,-70 1740,-198 2036,-198 2036,-70 1740,-70"/>
</g>
<g id="clust15" class="cluster">
<title>cluster_CoreModule_declarations</title>
<polygon fill="none" stroke="black" points="1904,-78 1904,-130 2028,-130 2028,-78 1904,-78"/>
</g>
<g id="clust17" class="cluster">
<title>cluster_CoreModule_imports</title>
<polygon fill="none" stroke="black" points="1748,-78 1748,-130 1896,-130 1896,-78 1748,-78"/>
</g>
<g id="clust27" class="cluster">
<title>cluster_DashboardModule</title>
<polygon fill="none" stroke="black" stroke-dasharray="1,5" points="2044,-70 2044,-198 2408,-198 2408,-70 2044,-70"/>
</g>
<g id="clust28" class="cluster">
<title>cluster_DashboardModule_declarations</title>
<polygon fill="none" stroke="black" points="2242,-78 2242,-130 2400,-130 2400,-78 2242,-78"/>
</g>
<g id="clust30" class="cluster">
<title>cluster_DashboardModule_imports</title>
<polygon fill="none" stroke="black" points="2052,-78 2052,-130 2234,-130 2234,-78 2052,-78"/>
</g>
<g id="clust40" class="cluster">
<title>cluster_DataTableModule</title>
<polygon fill="none" stroke="black" stroke-dasharray="1,5" points="3038,-70 3038,-274 3214,-274 3214,-70 3038,-70"/>
</g>
<g id="clust41" class="cluster">
<title>cluster_DataTableModule_declarations</title>
<polygon fill="none" stroke="black" points="3047,-78 3047,-130 3203,-130 3203,-78 3047,-78"/>
</g>
<g id="clust44" class="cluster">
<title>cluster_DataTableModule_exports</title>
<polygon fill="none" stroke="black" points="3046,-214 3046,-266 3206,-266 3206,-214 3046,-214"/>
</g>
<g id="clust47" class="cluster">
<title>cluster_HomeModule</title>
<polygon fill="none" stroke="black" stroke-dasharray="1,5" points="2416,-70 2416,-274 2726,-274 2726,-70 2416,-70"/>
</g>
<g id="clust48" class="cluster">
<title>cluster_HomeModule_declarations</title>
<polygon fill="none" stroke="black" points="2586,-78 2586,-130 2718,-130 2718,-78 2586,-78"/>
</g>
<g id="clust50" class="cluster">
<title>cluster_HomeModule_imports</title>
<polygon fill="none" stroke="black" points="2424,-78 2424,-130 2578,-130 2578,-78 2424,-78"/>
</g>
<g id="clust51" class="cluster">
<title>cluster_HomeModule_exports</title>
<polygon fill="none" stroke="black" points="2507,-214 2507,-266 2643,-266 2643,-214 2507,-214"/>
</g>
<g id="clust60" class="cluster">
<title>cluster_SharedModule</title>
<polygon fill="none" stroke="black" stroke-dasharray="1,5" points="8,-138 8,-206 1317,-206 1317,-138 8,-138"/>
</g>
<g id="clust61" class="cluster">
<title>cluster_SharedModule_declarations</title>
<polygon fill="none" stroke="black" points="674,-146 674,-198 1309,-198 1309,-146 674,-146"/>
</g>
<g id="clust67" class="cluster">
<title>cluster_SharedModule_exports</title>
<polygon fill="none" stroke="black" points="16,-146 16,-198 666,-198 666,-146 16,-146"/>
</g>
<g id="clust70" class="cluster">
<title>cluster_UserModule</title>
<polygon fill="none" stroke="black" stroke-dasharray="1,5" points="2734,-138 2734,-266 3030,-266 3030,-138 2734,-138"/>
</g>
<g id="clust71" class="cluster">
<title>cluster_UserModule_declarations</title>
<polygon fill="none" stroke="black" points="2898,-146 2898,-198 3022,-198 3022,-146 2898,-146"/>
</g>
<g id="clust73" class="cluster">
<title>cluster_UserModule_imports</title>
<polygon fill="none" stroke="black" points="2742,-146 2742,-198 2890,-198 2890,-146 2742,-146"/>
</g>
<!-- AppComponent -->
<g id="node1" class="node">
<title>AppComponent</title>
<polygon fill="#ffffb3" stroke="black" points="1715.94,-122 1610.06,-122 1610.06,-86 1715.94,-86 1715.94,-122"/>
<text text-anchor="middle" x="1663" y="-99.8" font-family="Times,serif" font-size="14.00">AppComponent</text>
</g>
<!-- AppModule -->
<g id="node2" class="node">
<title>AppModule</title>
<polygon fill="#8dd3c7" stroke="black" points="1563.66,-190 1560.66,-194 1539.66,-194 1536.66,-190 1480.34,-190 1480.34,-154 1563.66,-154 1563.66,-190"/>
<text text-anchor="middle" x="1522" y="-167.8" font-family="Times,serif" font-size="14.00">AppModule</text>
</g>
<!-- AppComponent&#45;&gt;AppModule -->
<g id="edge1" class="edge">
<title>AppComponent&#45;&gt;AppModule</title>
<path fill="none" stroke="black" d="M1663,-122.22C1663,-142.37 1663,-172 1663,-172 1663,-172 1573.92,-172 1573.92,-172"/>
<polygon fill="black" stroke="black" points="1573.92,-168.5 1563.92,-172 1573.92,-175.5 1573.92,-168.5"/>
</g>
<!-- AppComponent  -->
<g id="node5" class="node">
<title>AppComponent </title>
<polygon fill="#80b1d3" stroke="black" points="1576.44,-258 1467.56,-258 1467.56,-222 1576.44,-222 1576.44,-258"/>
<text text-anchor="middle" x="1522" y="-235.8" font-family="Times,serif" font-size="14.00">AppComponent </text>
</g>
<!-- AppModule&#45;&gt;AppComponent  -->
<g id="edge4" class="edge">
<title>AppModule&#45;&gt;AppComponent </title>
<path fill="none" stroke="black" stroke-dasharray="1,5" d="M1522,-190.22C1522,-190.22 1522,-211.73 1522,-211.73"/>
<polygon fill="black" stroke="black" points="1518.5,-211.73 1522,-221.73 1525.5,-211.73 1518.5,-211.73"/>
</g>
<!-- AppRoutingModule -->
<g id="node3" class="node">
<title>AppRoutingModule</title>
<polygon fill="#8dd3c7" stroke="black" points="1586.27,-122 1583.27,-126 1562.27,-126 1559.27,-122 1457.73,-122 1457.73,-86 1586.27,-86 1586.27,-122"/>
<text text-anchor="middle" x="1522" y="-99.8" font-family="Times,serif" font-size="14.00">AppRoutingModule</text>
</g>
<!-- AppRoutingModule&#45;&gt;AppModule -->
<g id="edge2" class="edge">
<title>AppRoutingModule&#45;&gt;AppModule</title>
<path fill="none" stroke="black" d="M1522,-122.22C1522,-122.22 1522,-143.73 1522,-143.73"/>
<polygon fill="black" stroke="black" points="1518.5,-143.73 1522,-153.73 1525.5,-143.73 1518.5,-143.73"/>
</g>
<!-- SharedModule -->
<g id="node4" class="node">
<title>SharedModule</title>
<polygon fill="#8dd3c7" stroke="black" points="1439.42,-122 1436.42,-126 1415.42,-126 1412.42,-122 1340.58,-122 1340.58,-86 1439.42,-86 1439.42,-122"/>
<text text-anchor="middle" x="1390" y="-99.8" font-family="Times,serif" font-size="14.00">SharedModule</text>
</g>
<!-- SharedModule&#45;&gt;AppModule -->
<g id="edge3" class="edge">
<title>SharedModule&#45;&gt;AppModule</title>
<path fill="none" stroke="black" d="M1425.15,-122.29C1425.15,-144.21 1425.15,-178 1425.15,-178 1425.15,-178 1470.08,-178 1470.08,-178"/>
<polygon fill="black" stroke="black" points="1470.08,-181.5 1480.08,-178 1470.08,-174.5 1470.08,-181.5"/>
</g>
<!-- CoreModule -->
<g id="node7" class="node">
<title>CoreModule</title>
<polygon fill="#8dd3c7" stroke="black" points="1865.26,-190 1862.26,-194 1841.26,-194 1838.26,-190 1778.74,-190 1778.74,-154 1865.26,-154 1865.26,-190"/>
<text text-anchor="middle" x="1822" y="-167.8" font-family="Times,serif" font-size="14.00">CoreModule</text>
</g>
<!-- SharedModule&#45;&gt;CoreModule -->
<g id="edge7" class="edge">
<title>SharedModule&#45;&gt;CoreModule</title>
<path fill="none" stroke="black" d="M1382.97,-122.06C1382.97,-133.44 1382.97,-146 1382.97,-146 1382.97,-146 1807.54,-146 1807.54,-146 1807.54,-146 1807.54,-146.79 1807.54,-146.79"/>
<polygon fill="black" stroke="black" points="1804.04,-143.94 1807.54,-153.94 1811.04,-143.94 1804.04,-143.94"/>
</g>
<!-- DashboardModule -->
<g id="node10" class="node">
<title>DashboardModule</title>
<polygon fill="#8dd3c7" stroke="black" points="2203.19,-190 2200.19,-194 2179.19,-194 2176.19,-190 2082.81,-190 2082.81,-154 2203.19,-154 2203.19,-190"/>
<text text-anchor="middle" x="2143" y="-167.8" font-family="Times,serif" font-size="14.00">DashboardModule</text>
</g>
<!-- SharedModule&#45;&gt;DashboardModule -->
<g id="edge10" class="edge">
<title>SharedModule&#45;&gt;DashboardModule</title>
<path fill="none" stroke="black" d="M1397.03,-122.19C1397.03,-130.28 1397.03,-138 1397.03,-138 1397.03,-138 2122.97,-138 2122.97,-138 2122.97,-138 2122.97,-143.81 2122.97,-143.81"/>
<polygon fill="black" stroke="black" points="2119.47,-143.81 2122.97,-153.81 2126.47,-143.81 2119.47,-143.81"/>
</g>
<!-- HomeModule -->
<g id="node16" class="node">
<title>HomeModule</title>
<polygon fill="#8dd3c7" stroke="black" points="2621.76,-190 2618.76,-194 2597.76,-194 2594.76,-190 2528.24,-190 2528.24,-154 2621.76,-154 2621.76,-190"/>
<text text-anchor="middle" x="2575" y="-167.8" font-family="Times,serif" font-size="14.00">HomeModule</text>
</g>
<!-- SharedModule&#45;&gt;HomeModule -->
<g id="edge15" class="edge">
<title>SharedModule&#45;&gt;HomeModule</title>
<path fill="none" stroke="black" d="M1411.09,-122.06C1411.09,-126.49 1411.09,-130 1411.09,-130 1411.09,-130 2542.23,-130 2542.23,-130 2542.23,-130 2542.23,-143.94 2542.23,-143.94"/>
<polygon fill="black" stroke="black" points="2538.73,-143.94 2542.23,-153.94 2545.73,-143.94 2538.73,-143.94"/>
</g>
<!-- DatePickerDirective  -->
<g id="node23" class="node">
<title>DatePickerDirective </title>
<polygon fill="#fb8072" stroke="black" points="657.77,-190 524.23,-190 524.23,-154 657.77,-154 657.77,-190"/>
<text text-anchor="middle" x="591" y="-167.8" font-family="Times,serif" font-size="14.00">DatePickerDirective </text>
</g>
<!-- SharedModule&#45;&gt;DatePickerDirective  -->
<g id="edge21" class="edge">
<title>SharedModule&#45;&gt;DatePickerDirective </title>
<path fill="none" stroke="black" stroke-dasharray="5,2" d="M1340.62,-104C1166.42,-104 591,-104 591,-104 591,-104 591,-143.78 591,-143.78"/>
<polygon fill="black" stroke="black" points="587.5,-143.78 591,-153.78 594.5,-143.78 587.5,-143.78"/>
</g>
<!-- DatepickerComponent  -->
<g id="node24" class="node">
<title>DatepickerComponent </title>
<polygon fill="#fb8072" stroke="black" points="506.24,-190 359.76,-190 359.76,-154 506.24,-154 506.24,-190"/>
<text text-anchor="middle" x="433" y="-167.8" font-family="Times,serif" font-size="14.00">DatepickerComponent </text>
</g>
<!-- SharedModule&#45;&gt;DatepickerComponent  -->
<g id="edge22" class="edge">
<title>SharedModule&#45;&gt;DatepickerComponent </title>
<path fill="none" stroke="black" stroke-dasharray="5,2" d="M1340.56,-100C1144.6,-100 433,-100 433,-100 433,-100 433,-143.83 433,-143.83"/>
<polygon fill="black" stroke="black" points="429.5,-143.83 433,-153.83 436.5,-143.83 429.5,-143.83"/>
</g>
<!-- EngToNepNumberPipe  -->
<g id="node25" class="node">
<title>EngToNepNumberPipe </title>
<polygon fill="#fb8072" stroke="black" points="341.69,-190 190.31,-190 190.31,-154 341.69,-154 341.69,-190"/>
<text text-anchor="middle" x="266" y="-167.8" font-family="Times,serif" font-size="14.00">EngToNepNumberPipe </text>
</g>
<!-- SharedModule&#45;&gt;EngToNepNumberPipe  -->
<g id="edge23" class="edge">
<title>SharedModule&#45;&gt;EngToNepNumberPipe </title>
<path fill="none" stroke="black" stroke-dasharray="5,2" d="M1340.62,-95C1123.68,-95 266,-95 266,-95 266,-95 266,-143.75 266,-143.75"/>
<polygon fill="black" stroke="black" points="262.5,-143.75 266,-153.75 269.5,-143.75 262.5,-143.75"/>
</g>
<!-- LocalLangChangePipe  -->
<g id="node26" class="node">
<title>LocalLangChangePipe </title>
<polygon fill="#fb8072" stroke="black" points="171.79,-190 24.21,-190 24.21,-154 171.79,-154 171.79,-190"/>
<text text-anchor="middle" x="98" y="-167.8" font-family="Times,serif" font-size="14.00">LocalLangChangePipe </text>
</g>
<!-- SharedModule&#45;&gt;LocalLangChangePipe  -->
<g id="edge24" class="edge">
<title>SharedModule&#45;&gt;LocalLangChangePipe </title>
<path fill="none" stroke="black" stroke-dasharray="5,2" d="M1340.54,-91C1103.82,-91 98,-91 98,-91 98,-91 98,-143.62 98,-143.62"/>
<polygon fill="black" stroke="black" points="94.5,-143.62 98,-153.62 101.5,-143.62 94.5,-143.62"/>
</g>
<!-- UserModule -->
<g id="node28" class="node">
<title>UserModule</title>
<polygon fill="#8dd3c7" stroke="black" points="2858.98,-258 2855.98,-262 2834.98,-262 2831.98,-258 2773.02,-258 2773.02,-222 2858.98,-222 2858.98,-258"/>
<text text-anchor="middle" x="2816" y="-235.8" font-family="Times,serif" font-size="14.00">UserModule</text>
</g>
<!-- SharedModule&#45;&gt;UserModule -->
<g id="edge28" class="edge">
<title>SharedModule&#45;&gt;UserModule</title>
<path fill="none" stroke="black" d="M1368.91,-122.24C1368.91,-151.57 1368.91,-206 1368.91,-206 1368.91,-206 2801.67,-206 2801.67,-206 2801.67,-206 2801.67,-211.81 2801.67,-211.81"/>
<polygon fill="black" stroke="black" points="2798.17,-211.81 2801.67,-221.81 2805.17,-211.81 2798.17,-211.81"/>
</g>
<!-- CoreComponent -->
<g id="node6" class="node">
<title>CoreComponent</title>
<polygon fill="#ffffb3" stroke="black" points="2020.05,-122 1911.95,-122 1911.95,-86 2020.05,-86 2020.05,-122"/>
<text text-anchor="middle" x="1966" y="-99.8" font-family="Times,serif" font-size="14.00">CoreComponent</text>
</g>
<!-- CoreComponent&#45;&gt;CoreModule -->
<g id="edge5" class="edge">
<title>CoreComponent&#45;&gt;CoreModule</title>
<path fill="none" stroke="black" d="M1966,-122.22C1966,-142.37 1966,-172 1966,-172 1966,-172 1875.6,-172 1875.6,-172"/>
<polygon fill="black" stroke="black" points="1875.6,-168.5 1865.6,-172 1875.6,-175.5 1875.6,-168.5"/>
</g>
<!-- CoreRoutingModule -->
<g id="node8" class="node">
<title>CoreRoutingModule</title>
<polygon fill="#8dd3c7" stroke="black" points="1887.88,-122 1884.88,-126 1863.88,-126 1860.88,-122 1756.12,-122 1756.12,-86 1887.88,-86 1887.88,-122"/>
<text text-anchor="middle" x="1822" y="-99.8" font-family="Times,serif" font-size="14.00">CoreRoutingModule</text>
</g>
<!-- CoreRoutingModule&#45;&gt;CoreModule -->
<g id="edge6" class="edge">
<title>CoreRoutingModule&#45;&gt;CoreModule</title>
<path fill="none" stroke="black" d="M1836.46,-122.22C1836.46,-122.22 1836.46,-143.73 1836.46,-143.73"/>
<polygon fill="black" stroke="black" points="1832.96,-143.73 1836.46,-153.73 1839.96,-143.73 1832.96,-143.73"/>
</g>
<!-- DashboardComponent -->
<g id="node9" class="node">
<title>DashboardComponent</title>
<polygon fill="#ffffb3" stroke="black" points="2391.97,-122 2250.03,-122 2250.03,-86 2391.97,-86 2391.97,-122"/>
<text text-anchor="middle" x="2321" y="-99.8" font-family="Times,serif" font-size="14.00">DashboardComponent</text>
</g>
<!-- DashboardComponent&#45;&gt;DashboardModule -->
<g id="edge8" class="edge">
<title>DashboardComponent&#45;&gt;DashboardModule</title>
<path fill="none" stroke="black" d="M2321,-122.22C2321,-142.37 2321,-172 2321,-172 2321,-172 2213.26,-172 2213.26,-172"/>
<polygon fill="black" stroke="black" points="2213.26,-168.5 2203.26,-172 2213.26,-175.5 2213.26,-168.5"/>
</g>
<!-- DashboardRoutingModule -->
<g id="node11" class="node">
<title>DashboardRoutingModule</title>
<polygon fill="#8dd3c7" stroke="black" points="2225.81,-122 2222.81,-126 2201.81,-126 2198.81,-122 2060.19,-122 2060.19,-86 2225.81,-86 2225.81,-122"/>
<text text-anchor="middle" x="2143" y="-99.8" font-family="Times,serif" font-size="14.00">DashboardRoutingModule</text>
</g>
<!-- DashboardRoutingModule&#45;&gt;DashboardModule -->
<g id="edge9" class="edge">
<title>DashboardRoutingModule&#45;&gt;DashboardModule</title>
<path fill="none" stroke="black" d="M2163.03,-122.22C2163.03,-122.22 2163.03,-143.73 2163.03,-143.73"/>
<polygon fill="black" stroke="black" points="2159.53,-143.73 2163.03,-153.73 2166.53,-143.73 2159.53,-143.73"/>
</g>
<!-- DataTableComponent -->
<g id="node12" class="node">
<title>DataTableComponent</title>
<polygon fill="#ffffb3" stroke="black" points="3194.63,-122 3055.37,-122 3055.37,-86 3194.63,-86 3194.63,-122"/>
<text text-anchor="middle" x="3125" y="-99.8" font-family="Times,serif" font-size="14.00">DataTableComponent</text>
</g>
<!-- DataTableModule -->
<g id="node13" class="node">
<title>DataTableModule</title>
<polygon fill="#8dd3c7" stroke="black" points="3183.85,-190 3180.85,-194 3159.85,-194 3156.85,-190 3066.15,-190 3066.15,-154 3183.85,-154 3183.85,-190"/>
<text text-anchor="middle" x="3125" y="-167.8" font-family="Times,serif" font-size="14.00">DataTableModule</text>
</g>
<!-- DataTableComponent&#45;&gt;DataTableModule -->
<g id="edge11" class="edge">
<title>DataTableComponent&#45;&gt;DataTableModule</title>
<path fill="none" stroke="black" d="M3125,-122.22C3125,-122.22 3125,-143.73 3125,-143.73"/>
<polygon fill="black" stroke="black" points="3121.5,-143.73 3125,-153.73 3128.5,-143.73 3121.5,-143.73"/>
</g>
<!-- DataTableComponent  -->
<g id="node14" class="node">
<title>DataTableComponent </title>
<polygon fill="#fb8072" stroke="black" points="3197.63,-258 3054.37,-258 3054.37,-222 3197.63,-222 3197.63,-258"/>
<text text-anchor="middle" x="3126" y="-235.8" font-family="Times,serif" font-size="14.00">DataTableComponent </text>
</g>
<!-- DataTableModule&#45;&gt;DataTableComponent  -->
<g id="edge12" class="edge">
<title>DataTableModule&#45;&gt;DataTableComponent </title>
<path fill="none" stroke="black" stroke-dasharray="5,2" d="M3125,-190.22C3125,-190.22 3125,-211.73 3125,-211.73"/>
<polygon fill="black" stroke="black" points="3121.5,-211.73 3125,-221.73 3128.5,-211.73 3121.5,-211.73"/>
</g>
<!-- DataTableModule&#45;&gt;UserModule -->
<g id="edge26" class="edge">
<title>DataTableModule&#45;&gt;UserModule</title>
<path fill="none" stroke="black" d="M3065.93,-172C3048.58,-172 3034.16,-172 3034.16,-172 3034.16,-172 3034.16,-246 3034.16,-246 3034.16,-246 2869.1,-246 2869.1,-246"/>
<polygon fill="black" stroke="black" points="2869.1,-242.5 2859.1,-246 2869.1,-249.5 2869.1,-242.5"/>
</g>
<!-- HomeComponent -->
<g id="node15" class="node">
<title>HomeComponent</title>
<polygon fill="#ffffb3" stroke="black" points="2709.55,-122 2594.45,-122 2594.45,-86 2709.55,-86 2709.55,-122"/>
<text text-anchor="middle" x="2652" y="-99.8" font-family="Times,serif" font-size="14.00">HomeComponent</text>
</g>
<!-- HomeComponent&#45;&gt;HomeModule -->
<g id="edge13" class="edge">
<title>HomeComponent&#45;&gt;HomeModule</title>
<path fill="none" stroke="black" d="M2608.05,-122.22C2608.05,-122.22 2608.05,-143.73 2608.05,-143.73"/>
<polygon fill="black" stroke="black" points="2604.55,-143.73 2608.05,-153.73 2611.55,-143.73 2604.55,-143.73"/>
</g>
<!-- HomeComponent  -->
<g id="node18" class="node">
<title>HomeComponent </title>
<polygon fill="#fb8072" stroke="black" points="2634.54,-258 2515.46,-258 2515.46,-222 2634.54,-222 2634.54,-258"/>
<text text-anchor="middle" x="2575" y="-235.8" font-family="Times,serif" font-size="14.00">HomeComponent </text>
</g>
<!-- HomeModule&#45;&gt;HomeComponent  -->
<g id="edge16" class="edge">
<title>HomeModule&#45;&gt;HomeComponent </title>
<path fill="none" stroke="black" stroke-dasharray="5,2" d="M2575,-190.22C2575,-190.22 2575,-211.73 2575,-211.73"/>
<polygon fill="black" stroke="black" points="2571.5,-211.73 2575,-221.73 2578.5,-211.73 2571.5,-211.73"/>
</g>
<!-- HomeModule&#45;&gt;UserModule -->
<g id="edge27" class="edge">
<title>HomeModule&#45;&gt;UserModule</title>
<path fill="none" stroke="black" d="M2621.87,-172C2646.71,-172 2672.15,-172 2672.15,-172 2672.15,-172 2672.15,-240 2672.15,-240 2672.15,-240 2762.84,-240 2762.84,-240"/>
<polygon fill="black" stroke="black" points="2762.84,-243.5 2772.84,-240 2762.84,-236.5 2762.84,-243.5"/>
</g>
<!-- HomeRoutingModule -->
<g id="node17" class="node">
<title>HomeRoutingModule</title>
<polygon fill="#8dd3c7" stroke="black" points="2570.38,-122 2567.38,-126 2546.38,-126 2543.38,-122 2431.62,-122 2431.62,-86 2570.38,-86 2570.38,-122"/>
<text text-anchor="middle" x="2501" y="-99.8" font-family="Times,serif" font-size="14.00">HomeRoutingModule</text>
</g>
<!-- HomeRoutingModule&#45;&gt;HomeModule -->
<g id="edge14" class="edge">
<title>HomeRoutingModule&#45;&gt;HomeModule</title>
<path fill="none" stroke="black" d="M2556.33,-122.22C2556.33,-122.22 2556.33,-143.73 2556.33,-143.73"/>
<polygon fill="black" stroke="black" points="2552.83,-143.73 2556.33,-153.73 2559.83,-143.73 2552.83,-143.73"/>
</g>
<!-- DatePickerDirective -->
<g id="node19" class="node">
<title>DatePickerDirective</title>
<polygon fill="#ffffb3" stroke="black" points="1301.27,-190 1170.73,-190 1170.73,-154 1301.27,-154 1301.27,-190"/>
<text text-anchor="middle" x="1236" y="-167.8" font-family="Times,serif" font-size="14.00">DatePickerDirective</text>
</g>
<!-- DatePickerDirective&#45;&gt;SharedModule -->
<g id="edge17" class="edge">
<title>DatePickerDirective&#45;&gt;SharedModule</title>
<path fill="none" stroke="black" d="M1301.34,-166C1328.95,-166 1354.85,-166 1354.85,-166 1354.85,-166 1354.85,-132.27 1354.85,-132.27"/>
<polygon fill="black" stroke="black" points="1358.35,-132.27 1354.85,-122.27 1351.35,-132.27 1358.35,-132.27"/>
</g>
<!-- DatepickerComponent -->
<g id="node20" class="node">
<title>DatepickerComponent</title>
<polygon fill="#ffffb3" stroke="black" points="1152.24,-190 1009.76,-190 1009.76,-154 1152.24,-154 1152.24,-190"/>
<text text-anchor="middle" x="1081" y="-167.8" font-family="Times,serif" font-size="14.00">DatepickerComponent</text>
</g>
<!-- DatepickerComponent&#45;&gt;SharedModule -->
<g id="edge18" class="edge">
<title>DatepickerComponent&#45;&gt;SharedModule</title>
<path fill="none" stroke="black" d="M1081,-153.72C1081,-138.05 1081,-118 1081,-118 1081,-118 1330.7,-118 1330.7,-118"/>
<polygon fill="black" stroke="black" points="1330.7,-121.5 1340.7,-118 1330.7,-114.5 1330.7,-121.5"/>
</g>
<!-- EngToNepNumberPipe -->
<g id="node21" class="node">
<title>EngToNepNumberPipe</title>
<polygon fill="#ffffb3" stroke="black" points="992.19,-190 843.81,-190 843.81,-154 992.19,-154 992.19,-190"/>
<text text-anchor="middle" x="918" y="-167.8" font-family="Times,serif" font-size="14.00">EngToNepNumberPipe</text>
</g>
<!-- EngToNepNumberPipe&#45;&gt;SharedModule -->
<g id="edge19" class="edge">
<title>EngToNepNumberPipe&#45;&gt;SharedModule</title>
<path fill="none" stroke="black" d="M918,-153.98C918,-136.63 918,-113 918,-113 918,-113 1330.38,-113 1330.38,-113"/>
<polygon fill="black" stroke="black" points="1330.38,-116.5 1340.38,-113 1330.38,-109.5 1330.38,-116.5"/>
</g>
<!-- LocalLangChangePipe -->
<g id="node22" class="node">
<title>LocalLangChangePipe</title>
<polygon fill="#ffffb3" stroke="black" points="826.29,-190 681.71,-190 681.71,-154 826.29,-154 826.29,-190"/>
<text text-anchor="middle" x="754" y="-167.8" font-family="Times,serif" font-size="14.00">LocalLangChangePipe</text>
</g>
<!-- LocalLangChangePipe&#45;&gt;SharedModule -->
<g id="edge20" class="edge">
<title>LocalLangChangePipe&#45;&gt;SharedModule</title>
<path fill="none" stroke="black" d="M754,-153.78C754,-135.17 754,-109 754,-109 754,-109 1330.62,-109 1330.62,-109"/>
<polygon fill="black" stroke="black" points="1330.62,-112.5 1340.62,-109 1330.62,-105.5 1330.62,-112.5"/>
</g>
<!-- UserComponent -->
<g id="node27" class="node">
<title>UserComponent</title>
<polygon fill="#ffffb3" stroke="black" points="3013.76,-190 2906.24,-190 2906.24,-154 3013.76,-154 3013.76,-190"/>
<text text-anchor="middle" x="2960" y="-167.8" font-family="Times,serif" font-size="14.00">UserComponent</text>
</g>
<!-- UserComponent&#45;&gt;UserModule -->
<g id="edge25" class="edge">
<title>UserComponent&#45;&gt;UserModule</title>
<path fill="none" stroke="black" d="M2960,-190.27C2960,-208.56 2960,-234 2960,-234 2960,-234 2869.2,-234 2869.2,-234"/>
<polygon fill="black" stroke="black" points="2869.2,-230.5 2859.2,-234 2869.2,-237.5 2869.2,-230.5"/>
</g>
<!-- UserRoutingModule -->
<g id="node29" class="node">
<title>UserRoutingModule</title>
<polygon fill="#8dd3c7" stroke="black" points="2881.59,-190 2878.59,-194 2857.59,-194 2854.59,-190 2750.41,-190 2750.41,-154 2881.59,-154 2881.59,-190"/>
<text text-anchor="middle" x="2816" y="-167.8" font-family="Times,serif" font-size="14.00">UserRoutingModule</text>
</g>
<!-- UserRoutingModule&#45;&gt;UserModule -->
<g id="edge29" class="edge">
<title>UserRoutingModule&#45;&gt;UserModule</title>
<path fill="none" stroke="black" d="M2830.33,-190.22C2830.33,-190.22 2830.33,-211.73 2830.33,-211.73"/>
<polygon fill="black" stroke="black" points="2826.83,-211.73 2830.33,-221.73 2833.83,-211.73 2826.83,-211.73"/>
</g>
</g>
</svg>
