<?xml version="1.0" encoding="UTF-8" standalone="no"?>
<!DOCTYPE svg PUBLIC "-//W3C//DTD SVG 1.1//EN"
 "http://www.w3.org/Graphics/SVG/1.1/DTD/svg11.dtd">
<!-- Generated by graphviz version 2.47.0 (20210316.0004)
 -->
<!-- Title: dependencies Pages: 1 -->
<svg width="2381pt" height="290pt"
 viewBox="0.00 0.00 2381.00 290.00" xmlns="http://www.w3.org/2000/svg" xmlns:xlink="http://www.w3.org/1999/xlink">
<g id="graph0" class="graph" transform="scale(1 1) rotate(0) translate(4 286)">
<title>dependencies</title>
<polygon fill="white" stroke="transparent" points="-4,4 -4,-286 2377,-286 2377,4 -4,4"/>
<text text-anchor="start" x="1165.51" y="-42.4" font-family="Times-12" font-weight="bold" font-size="14.00">Legend</text>
<polygon fill="#ffffb3" stroke="transparent" points="952.5,-10 952.5,-30 972.5,-30 972.5,-10 952.5,-10"/>
<text text-anchor="start" x="976.13" y="-15.4" font-family="Times-12" font-size="14.00"> &#160;Declarations</text>
<polygon fill="#8dd3c7" stroke="transparent" points="1065.5,-10 1065.5,-30 1085.5,-30 1085.5,-10 1065.5,-10"/>
<text text-anchor="start" x="1089.23" y="-15.4" font-family="Times-12" font-size="14.00"> &#160;Module</text>
<polygon fill="#80b1d3" stroke="transparent" points="1151.5,-10 1151.5,-30 1171.5,-30 1171.5,-10 1151.5,-10"/>
<text text-anchor="start" x="1175.28" y="-15.4" font-family="Times-12" font-size="14.00"> &#160;Bootstrap</text>
<polygon fill="#fdb462" stroke="transparent" points="1248.5,-10 1248.5,-30 1268.5,-30 1268.5,-10 1248.5,-10"/>
<text text-anchor="start" x="1272.17" y="-15.4" font-family="Times-12" font-size="14.00"> &#160;Providers</text>
<polygon fill="#fb8072" stroke="transparent" points="1344.5,-10 1344.5,-30 1364.5,-30 1364.5,-10 1344.5,-10"/>
<text text-anchor="start" x="1368.23" y="-15.4" font-family="Times-12" font-size="14.00"> &#160;Exports</text>
<g id="clust1" class="cluster">
<title>cluster_AppModule</title>
<polygon fill="none" stroke="black" stroke-dasharray="1,5" points="8,-70 8,-274 298,-274 298,-70 8,-70"/>
</g>
<g id="clust2" class="cluster">
<title>cluster_AppModule_declarations</title>
<polygon fill="none" stroke="black" points="168,-78 168,-130 290,-130 290,-78 168,-78"/>
</g>
<g id="clust4" class="cluster">
<title>cluster_AppModule_imports</title>
<polygon fill="none" stroke="black" points="16,-78 16,-130 160,-130 160,-78 16,-78"/>
</g>
<g id="clust6" class="cluster">
<title>cluster_AppModule_bootstrap</title>
<polygon fill="none" stroke="black" points="96,-214 96,-266 220,-266 220,-214 96,-214"/>
</g>
<g id="clust14" class="cluster">
<title>cluster_CoreModule</title>
<polygon fill="none" stroke="black" stroke-dasharray="1,5" points="959,-138 959,-266 1371,-266 1371,-138 959,-138"/>
</g>
<g id="clust15" class="cluster">
<title>cluster_CoreModule_declarations</title>
<polygon fill="none" stroke="black" points="1239,-146 1239,-198 1363,-198 1363,-146 1239,-146"/>
</g>
<g id="clust17" class="cluster">
<title>cluster_CoreModule_imports</title>
<polygon fill="none" stroke="black" points="967,-146 967,-198 1231,-198 1231,-146 967,-146"/>
</g>
<g id="clust27" class="cluster">
<title>cluster_DashboardModule</title>
<polygon fill="none" stroke="black" stroke-dasharray="1,5" points="1379,-138 1379,-266 1743,-266 1743,-138 1379,-138"/>
</g>
<g id="clust28" class="cluster">
<title>cluster_DashboardModule_declarations</title>
<polygon fill="none" stroke="black" points="1577,-146 1577,-198 1735,-198 1735,-146 1577,-146"/>
</g>
<g id="clust30" class="cluster">
<title>cluster_DashboardModule_imports</title>
<polygon fill="none" stroke="black" points="1387,-146 1387,-198 1569,-198 1569,-146 1387,-146"/>
</g>
<g id="clust40" class="cluster">
<title>cluster_HomeModule</title>
<polygon fill="none" stroke="black" stroke-dasharray="1,5" points="2055,-70 2055,-274 2365,-274 2365,-70 2055,-70"/>
</g>
<g id="clust41" class="cluster">
<title>cluster_HomeModule_declarations</title>
<polygon fill="none" stroke="black" points="2225,-78 2225,-130 2357,-130 2357,-78 2225,-78"/>
</g>
<g id="clust43" class="cluster">
<title>cluster_HomeModule_imports</title>
<polygon fill="none" stroke="black" points="2063,-78 2063,-130 2217,-130 2217,-78 2063,-78"/>
</g>
<g id="clust44" class="cluster">
<title>cluster_HomeModule_exports</title>
<polygon fill="none" stroke="black" points="2072,-214 2072,-266 2208,-266 2208,-214 2072,-214"/>
</g>
<g id="clust53" class="cluster">
<title>cluster_SharedModule</title>
<polygon fill="none" stroke="black" stroke-dasharray="1,5" points="306,-206 306,-274 951,-274 951,-206 306,-206"/>
</g>
<g id="clust54" class="cluster">
<title>cluster_SharedModule_declarations</title>
<polygon fill="none" stroke="black" points="636,-214 636,-266 943,-266 943,-214 636,-214"/>
</g>
<g id="clust58" class="cluster">
<title>cluster_SharedModule_exports</title>
<polygon fill="none" stroke="black" points="314,-214 314,-266 628,-266 628,-214 314,-214"/>
</g>
<g id="clust61" class="cluster">
<title>cluster_UserModule</title>
<polygon fill="none" stroke="black" stroke-dasharray="1,5" points="1751,-138 1751,-266 2047,-266 2047,-138 1751,-138"/>
</g>
<g id="clust62" class="cluster">
<title>cluster_UserModule_declarations</title>
<polygon fill="none" stroke="black" points="1915,-146 1915,-198 2039,-198 2039,-146 1915,-146"/>
</g>
<g id="clust64" class="cluster">
<title>cluster_UserModule_imports</title>
<polygon fill="none" stroke="black" points="1759,-146 1759,-198 1907,-198 1907,-146 1759,-146"/>
</g>
<!-- AppComponent -->
<g id="node1" class="node">
<title>AppComponent</title>
<polygon fill="#ffffb3" stroke="black" points="281.94,-122 176.06,-122 176.06,-86 281.94,-86 281.94,-122"/>
<text text-anchor="middle" x="229" y="-99.8" font-family="Times,serif" font-size="14.00">AppComponent</text>
</g>
<!-- AppModule -->
<g id="node2" class="node">
<title>AppModule</title>
<polygon fill="#8dd3c7" stroke="black" points="199.66,-190 196.66,-194 175.66,-194 172.66,-190 116.34,-190 116.34,-154 199.66,-154 199.66,-190"/>
<text text-anchor="middle" x="158" y="-167.8" font-family="Times,serif" font-size="14.00">AppModule</text>
</g>
<!-- AppComponent&#45;&gt;AppModule -->
<g id="edge1" class="edge">
<title>AppComponent&#45;&gt;AppModule</title>
<path fill="none" stroke="black" d="M188.05,-122.22C188.05,-122.22 188.05,-143.73 188.05,-143.73"/>
<polygon fill="black" stroke="black" points="184.55,-143.73 188.05,-153.73 191.55,-143.73 184.55,-143.73"/>
</g>
<!-- AppComponent  -->
<g id="node4" class="node">
<title>AppComponent </title>
<polygon fill="#80b1d3" stroke="black" points="212.44,-258 103.56,-258 103.56,-222 212.44,-222 212.44,-258"/>
<text text-anchor="middle" x="158" y="-235.8" font-family="Times,serif" font-size="14.00">AppComponent </text>
</g>
<!-- AppModule&#45;&gt;AppComponent  -->
<g id="edge3" class="edge">
<title>AppModule&#45;&gt;AppComponent </title>
<path fill="none" stroke="black" stroke-dasharray="1,5" d="M158,-190.22C158,-190.22 158,-211.73 158,-211.73"/>
<polygon fill="black" stroke="black" points="154.5,-211.73 158,-221.73 161.5,-211.73 154.5,-211.73"/>
</g>
<!-- AppRoutingModule -->
<g id="node3" class="node">
<title>AppRoutingModule</title>
<polygon fill="#8dd3c7" stroke="black" points="152.27,-122 149.27,-126 128.27,-126 125.27,-122 23.73,-122 23.73,-86 152.27,-86 152.27,-122"/>
<text text-anchor="middle" x="88" y="-99.8" font-family="Times,serif" font-size="14.00">AppRoutingModule</text>
</g>
<!-- AppRoutingModule&#45;&gt;AppModule -->
<g id="edge2" class="edge">
<title>AppRoutingModule&#45;&gt;AppModule</title>
<path fill="none" stroke="black" d="M134.28,-122.22C134.28,-122.22 134.28,-143.73 134.28,-143.73"/>
<polygon fill="black" stroke="black" points="130.78,-143.73 134.28,-153.73 137.78,-143.73 130.78,-143.73"/>
</g>
<!-- CoreComponent -->
<g id="node5" class="node">
<title>CoreComponent</title>
<polygon fill="#ffffb3" stroke="black" points="1355.05,-190 1246.95,-190 1246.95,-154 1355.05,-154 1355.05,-190"/>
<text text-anchor="middle" x="1301" y="-167.8" font-family="Times,serif" font-size="14.00">CoreComponent</text>
</g>
<!-- CoreModule -->
<g id="node6" class="node">
<title>CoreModule</title>
<polygon fill="#8dd3c7" stroke="black" points="1200.26,-258 1197.26,-262 1176.26,-262 1173.26,-258 1113.74,-258 1113.74,-222 1200.26,-222 1200.26,-258"/>
<text text-anchor="middle" x="1157" y="-235.8" font-family="Times,serif" font-size="14.00">CoreModule</text>
</g>
<!-- CoreComponent&#45;&gt;CoreModule -->
<g id="edge4" class="edge">
<title>CoreComponent&#45;&gt;CoreModule</title>
<path fill="none" stroke="black" d="M1301,-190.22C1301,-210.37 1301,-240 1301,-240 1301,-240 1210.6,-240 1210.6,-240"/>
<polygon fill="black" stroke="black" points="1210.6,-236.5 1200.6,-240 1210.6,-243.5 1210.6,-236.5"/>
</g>
<!-- CoreRoutingModule -->
<g id="node7" class="node">
<title>CoreRoutingModule</title>
<polygon fill="#8dd3c7" stroke="black" points="1222.88,-190 1219.88,-194 1198.88,-194 1195.88,-190 1091.12,-190 1091.12,-154 1222.88,-154 1222.88,-190"/>
<text text-anchor="middle" x="1157" y="-167.8" font-family="Times,serif" font-size="14.00">CoreRoutingModule</text>
</g>
<!-- CoreRoutingModule&#45;&gt;CoreModule -->
<g id="edge5" class="edge">
<title>CoreRoutingModule&#45;&gt;CoreModule</title>
<path fill="none" stroke="black" d="M1157,-190.22C1157,-190.22 1157,-211.73 1157,-211.73"/>
<polygon fill="black" stroke="black" points="1153.5,-211.73 1157,-221.73 1160.5,-211.73 1153.5,-211.73"/>
</g>
<!-- SharedModule -->
<g id="node8" class="node">
<title>SharedModule</title>
<polygon fill="#8dd3c7" stroke="black" points="1073.42,-190 1070.42,-194 1049.42,-194 1046.42,-190 974.58,-190 974.58,-154 1073.42,-154 1073.42,-190"/>
<text text-anchor="middle" x="1024" y="-167.8" font-family="Times,serif" font-size="14.00">SharedModule</text>
</g>
<!-- SharedModule&#45;&gt;CoreModule -->
<g id="edge6" class="edge">
<title>SharedModule&#45;&gt;CoreModule</title>
<path fill="none" stroke="black" d="M1053.53,-190.29C1053.53,-212.21 1053.53,-246 1053.53,-246 1053.53,-246 1103.72,-246 1103.72,-246"/>
<polygon fill="black" stroke="black" points="1103.72,-249.5 1113.72,-246 1103.72,-242.5 1103.72,-249.5"/>
</g>
<!-- DashboardModule -->
<g id="node10" class="node">
<title>DashboardModule</title>
<polygon fill="#8dd3c7" stroke="black" points="1538.19,-258 1535.19,-262 1514.19,-262 1511.19,-258 1417.81,-258 1417.81,-222 1538.19,-222 1538.19,-258"/>
<text text-anchor="middle" x="1478" y="-235.8" font-family="Times,serif" font-size="14.00">DashboardModule</text>
</g>
<!-- SharedModule&#45;&gt;DashboardModule -->
<g id="edge9" class="edge">
<title>SharedModule&#45;&gt;DashboardModule</title>
<path fill="none" stroke="black" d="M994.47,-190.13C994.47,-200.71 994.47,-212 994.47,-212 994.47,-212 1457.97,-212 1457.97,-212 1457.97,-212 1457.97,-212.98 1457.97,-212.98"/>
<polygon fill="black" stroke="black" points="1454.47,-211.79 1457.97,-221.79 1461.47,-211.79 1454.47,-211.79"/>
</g>
<!-- DatePickerDirective  -->
<g id="node18" class="node">
<title>DatePickerDirective </title>
<polygon fill="#fb8072" stroke="black" points="619.77,-258 486.23,-258 486.23,-222 619.77,-222 619.77,-258"/>
<text text-anchor="middle" x="553" y="-235.8" font-family="Times,serif" font-size="14.00">DatePickerDirective </text>
</g>
<!-- SharedModule&#45;&gt;DatePickerDirective  -->
<g id="edge15" class="edge">
<title>SharedModule&#45;&gt;DatePickerDirective </title>
<path fill="none" stroke="black" stroke-dasharray="5,2" d="M974.48,-172C853.56,-172 553,-172 553,-172 553,-172 553,-211.78 553,-211.78"/>
<polygon fill="black" stroke="black" points="549.5,-211.78 553,-221.78 556.5,-211.78 549.5,-211.78"/>
</g>
<!-- DatepickerComponent  -->
<g id="node19" class="node">
<title>DatepickerComponent </title>
<polygon fill="#fb8072" stroke="black" points="468.24,-258 321.76,-258 321.76,-222 468.24,-222 468.24,-258"/>
<text text-anchor="middle" x="395" y="-235.8" font-family="Times,serif" font-size="14.00">DatepickerComponent </text>
</g>
<!-- SharedModule&#45;&gt;DatepickerComponent  -->
<g id="edge16" class="edge">
<title>SharedModule&#45;&gt;DatepickerComponent </title>
<path fill="none" stroke="black" stroke-dasharray="5,2" d="M974.64,-163C826.36,-163 395,-163 395,-163 395,-163 395,-211.75 395,-211.75"/>
<polygon fill="black" stroke="black" points="391.5,-211.75 395,-221.75 398.5,-211.75 391.5,-211.75"/>
</g>
<!-- UserModule -->
<g id="node21" class="node">
<title>UserModule</title>
<polygon fill="#8dd3c7" stroke="black" points="1947.98,-258 1944.98,-262 1923.98,-262 1920.98,-258 1862.02,-258 1862.02,-222 1947.98,-222 1947.98,-258"/>
<text text-anchor="middle" x="1905" y="-235.8" font-family="Times,serif" font-size="14.00">UserModule</text>
</g>
<!-- SharedModule&#45;&gt;UserModule -->
<g id="edge19" class="edge">
<title>SharedModule&#45;&gt;UserModule</title>
<path fill="none" stroke="black" d="M1014.16,-190.2C1014.16,-196.03 1014.16,-201 1014.16,-201 1014.16,-201 1874.19,-201 1874.19,-201 1874.19,-201 1874.19,-211.87 1874.19,-211.87"/>
<polygon fill="black" stroke="black" points="1870.69,-211.87 1874.19,-221.87 1877.69,-211.87 1870.69,-211.87"/>
</g>
<!-- DashboardComponent -->
<g id="node9" class="node">
<title>DashboardComponent</title>
<polygon fill="#ffffb3" stroke="black" points="1726.97,-190 1585.03,-190 1585.03,-154 1726.97,-154 1726.97,-190"/>
<text text-anchor="middle" x="1656" y="-167.8" font-family="Times,serif" font-size="14.00">DashboardComponent</text>
</g>
<!-- DashboardComponent&#45;&gt;DashboardModule -->
<g id="edge7" class="edge">
<title>DashboardComponent&#45;&gt;DashboardModule</title>
<path fill="none" stroke="black" d="M1656,-190.22C1656,-210.37 1656,-240 1656,-240 1656,-240 1548.26,-240 1548.26,-240"/>
<polygon fill="black" stroke="black" points="1548.26,-236.5 1538.26,-240 1548.26,-243.5 1548.26,-236.5"/>
</g>
<!-- DashboardRoutingModule -->
<g id="node11" class="node">
<title>DashboardRoutingModule</title>
<polygon fill="#8dd3c7" stroke="black" points="1560.81,-190 1557.81,-194 1536.81,-194 1533.81,-190 1395.19,-190 1395.19,-154 1560.81,-154 1560.81,-190"/>
<text text-anchor="middle" x="1478" y="-167.8" font-family="Times,serif" font-size="14.00">DashboardRoutingModule</text>
</g>
<!-- DashboardRoutingModule&#45;&gt;DashboardModule -->
<g id="edge8" class="edge">
<title>DashboardRoutingModule&#45;&gt;DashboardModule</title>
<path fill="none" stroke="black" d="M1498.03,-190.22C1498.03,-190.22 1498.03,-211.73 1498.03,-211.73"/>
<polygon fill="black" stroke="black" points="1494.53,-211.73 1498.03,-221.73 1501.53,-211.73 1494.53,-211.73"/>
</g>
<!-- HomeComponent -->
<g id="node12" class="node">
<title>HomeComponent</title>
<polygon fill="#ffffb3" stroke="black" points="2348.55,-122 2233.45,-122 2233.45,-86 2348.55,-86 2348.55,-122"/>
<text text-anchor="middle" x="2291" y="-99.8" font-family="Times,serif" font-size="14.00">HomeComponent</text>
</g>
<!-- HomeModule -->
<g id="node13" class="node">
<title>HomeModule</title>
<polygon fill="#8dd3c7" stroke="black" points="2186.76,-190 2183.76,-194 2162.76,-194 2159.76,-190 2093.24,-190 2093.24,-154 2186.76,-154 2186.76,-190"/>
<text text-anchor="middle" x="2140" y="-167.8" font-family="Times,serif" font-size="14.00">HomeModule</text>
</g>
<!-- HomeComponent&#45;&gt;HomeModule -->
<g id="edge10" class="edge">
<title>HomeComponent&#45;&gt;HomeModule</title>
<path fill="none" stroke="black" d="M2291,-122.22C2291,-142.37 2291,-172 2291,-172 2291,-172 2196.95,-172 2196.95,-172"/>
<polygon fill="black" stroke="black" points="2196.95,-168.5 2186.95,-172 2196.95,-175.5 2196.95,-168.5"/>
</g>
<!-- HomeComponent  -->
<g id="node15" class="node">
<title>HomeComponent </title>
<polygon fill="#fb8072" stroke="black" points="2199.54,-258 2080.46,-258 2080.46,-222 2199.54,-222 2199.54,-258"/>
<text text-anchor="middle" x="2140" y="-235.8" font-family="Times,serif" font-size="14.00">HomeComponent </text>
</g>
<!-- HomeModule&#45;&gt;HomeComponent  -->
<g id="edge12" class="edge">
<title>HomeModule&#45;&gt;HomeComponent </title>
<path fill="none" stroke="black" stroke-dasharray="5,2" d="M2140,-190.22C2140,-190.22 2140,-211.73 2140,-211.73"/>
<polygon fill="black" stroke="black" points="2136.5,-211.73 2140,-221.73 2143.5,-211.73 2136.5,-211.73"/>
</g>
<!-- HomeModule&#45;&gt;UserModule -->
<g id="edge18" class="edge">
<title>HomeModule&#45;&gt;UserModule</title>
<path fill="none" stroke="black" d="M2093.14,-172C2083.14,-172 2075.52,-172 2075.52,-172 2075.52,-172 2075.52,-240 2075.52,-240 2075.52,-240 1958.03,-240 1958.03,-240"/>
<polygon fill="black" stroke="black" points="1958.03,-236.5 1948.03,-240 1958.03,-243.5 1958.03,-236.5"/>
</g>
<!-- HomeRoutingModule -->
<g id="node14" class="node">
<title>HomeRoutingModule</title>
<polygon fill="#8dd3c7" stroke="black" points="2209.38,-122 2206.38,-126 2185.38,-126 2182.38,-122 2070.62,-122 2070.62,-86 2209.38,-86 2209.38,-122"/>
<text text-anchor="middle" x="2140" y="-99.8" font-family="Times,serif" font-size="14.00">HomeRoutingModule</text>
</g>
<!-- HomeRoutingModule&#45;&gt;HomeModule -->
<g id="edge11" class="edge">
<title>HomeRoutingModule&#45;&gt;HomeModule</title>
<path fill="none" stroke="black" d="M2140,-122.22C2140,-122.22 2140,-143.73 2140,-143.73"/>
<polygon fill="black" stroke="black" points="2136.5,-143.73 2140,-153.73 2143.5,-143.73 2136.5,-143.73"/>
</g>
<!-- DatePickerDirective -->
<g id="node16" class="node">
<title>DatePickerDirective</title>
<polygon fill="#ffffb3" stroke="black" points="935.27,-258 804.73,-258 804.73,-222 935.27,-222 935.27,-258"/>
<text text-anchor="middle" x="870" y="-235.8" font-family="Times,serif" font-size="14.00">DatePickerDirective</text>
</g>
<!-- DatePickerDirective&#45;&gt;SharedModule -->
<g id="edge13" class="edge">
<title>DatePickerDirective&#45;&gt;SharedModule</title>
<path fill="none" stroke="black" d="M935.23,-234C980.92,-234 1033.84,-234 1033.84,-234 1033.84,-234 1033.84,-200.27 1033.84,-200.27"/>
<polygon fill="black" stroke="black" points="1037.34,-200.27 1033.84,-190.27 1030.34,-200.27 1037.34,-200.27"/>
</g>
<!-- DatepickerComponent -->
<g id="node17" class="node">
<title>DatepickerComponent</title>
<polygon fill="#ffffb3" stroke="black" points="786.24,-258 643.76,-258 643.76,-222 786.24,-222 786.24,-258"/>
<text text-anchor="middle" x="715" y="-235.8" font-family="Times,serif" font-size="14.00">DatepickerComponent</text>
</g>
<!-- DatepickerComponent&#45;&gt;SharedModule -->
<g id="edge14" class="edge">
<title>DatepickerComponent&#45;&gt;SharedModule</title>
<path fill="none" stroke="black" d="M715,-221.98C715,-204.63 715,-181 715,-181 715,-181 964.7,-181 964.7,-181"/>
<polygon fill="black" stroke="black" points="964.7,-184.5 974.7,-181 964.7,-177.5 964.7,-184.5"/>
</g>
<!-- UserComponent -->
<g id="node20" class="node">
<title>UserComponent</title>
<polygon fill="#ffffb3" stroke="black" points="2030.76,-190 1923.24,-190 1923.24,-154 2030.76,-154 2030.76,-190"/>
<text text-anchor="middle" x="1977" y="-167.8" font-family="Times,serif" font-size="14.00">UserComponent</text>
</g>
<!-- UserComponent&#45;&gt;UserModule -->
<g id="edge17" class="edge">
<title>UserComponent&#45;&gt;UserModule</title>
<path fill="none" stroke="black" d="M1935.55,-190.22C1935.55,-190.22 1935.55,-211.73 1935.55,-211.73"/>
<polygon fill="black" stroke="black" points="1932.05,-211.73 1935.55,-221.73 1939.05,-211.73 1932.05,-211.73"/>
</g>
<!-- UserRoutingModule -->
<g id="node22" class="node">
<title>UserRoutingModule</title>
<polygon fill="#8dd3c7" stroke="black" points="1898.59,-190 1895.59,-194 1874.59,-194 1871.59,-190 1767.41,-190 1767.41,-154 1898.59,-154 1898.59,-190"/>
<text text-anchor="middle" x="1833" y="-167.8" font-family="Times,serif" font-size="14.00">UserRoutingModule</text>
</g>
<!-- UserRoutingModule&#45;&gt;UserModule -->
<g id="edge20" class="edge">
<title>UserRoutingModule&#45;&gt;UserModule</title>
<path fill="none" stroke="black" d="M1886.37,-190.22C1886.37,-190.22 1886.37,-211.73 1886.37,-211.73"/>
<polygon fill="black" stroke="black" points="1882.87,-211.73 1886.37,-221.73 1889.87,-211.73 1882.87,-211.73"/>
</g>
</g>
</svg>
